<svg xmlns="http://www.w3.org/2000/svg" xmlns:xlink="http://www.w3.org/1999/xlink" viewBox="0 0 41.37 41.66"><defs><style>.cls-1{fill:url(#New_Gradient_Swatch_2);}.cls-2{fill:#1f0256;}.cls-3{fill:url(#New_Gradient_Swatch_2-2);}</style><linearGradient id="New_Gradient_Swatch_2" x1="2.46" y1="32.97" x2="2.46" y2="32.97" gradientUnits="userSpaceOnUse"><stop offset="0" stop-color="#17ccfc"/><stop offset="1" stop-color="#6c47ff"/></linearGradient><linearGradient id="New_Gradient_Swatch_2-2" x1="6.31" y1="17.25" x2="41.37" y2="17.25" xlink:href="#New_Gradient_Swatch_2"/></defs><title>Asset 5</title><g id="Layer_2" data-name="Layer 2"><g id="Layer_1-2" data-name="Layer 1"><path class="cls-1" d="M2.46,33v0Z"/><path class="cls-2" d="M24.73,36.62a1.44,1.44,0,0,0-.95-.75,8.52,8.52,0,0,0-1.63-.15,18.64,18.64,0,0,1-11.89-5.43A18.36,18.36,0,0,1,5,19.88a10.61,10.61,0,0,1-.13-1.12,1.47,1.47,0,0,0-2.58-1h0a6.65,6.65,0,0,0-1.07,1.59,15,15,0,0,0,1,13.85,1.26,1.26,0,0,1,.19,1L1.52,39a2.19,2.19,0,0,0,.73,2.11l0,0a2.2,2.2,0,0,0,1.39.49,2.12,2.12,0,0,0,.83-.17l5-1.9a.67.67,0,0,1,.52,0,17.17,17.17,0,0,0,5.89,1.1,16.21,16.21,0,0,0,6.92-1.53,5.13,5.13,0,0,0,1.75-1A1.37,1.37,0,0,0,24.73,36.62Z"/><path class="cls-3" d="M38.33,26.46a1.86,1.86,0,0,1,.1-.2v0l.05-.06.07-.1v0A16.46,16.46,0,0,0,36.5,5.19,17.75,17.75,0,0,0,23.85,0,18.08,18.08,0,0,0,12.73,3.83a16.85,16.85,0,0,0-6.05,9.61,16.17,16.17,0,0,0-.37,3.47A17,17,0,0,0,11.3,29a17.22,17.22,0,0,0,12.27,5,20.59,20.59,0,0,0,4.75-.76c1.21-.33,2.35-.76,2.48-.81a1,1,0,0,1,.34-.06.92.92,0,0,1,.36.07h0l5.24,1.86a2.44,2.44,0,0,0,.88.19h0a2.21,2.21,0,0,0,2.21-2.22,2.51,2.51,0,0,0-.1-.66ZM23.12,23.73A4.07,4.07,0,0,1,17.36,18l2.88-2.88a4.07,4.07,0,0,1,5.76,0,4,4,0,0,1,.62.82l-1.34,1.34a1,1,0,0,1-.22.14,2,2,0,0,0-.5-.86,2,2,0,0,0-2.88,0L18.8,19.41a2,2,0,0,0,2.88,2.88l1-1a5,5,0,0,0,2.6.29Zm7.2-7.2-2.88,2.88a4.07,4.07,0,0,1-5.76,0,4,4,0,0,1-.62-.82l1.34-1.34a.86.86,0,0,1,.22-.15,2,2,0,0,0,.5.87A2,2,0,0,0,26,18l2.88-2.88A2,2,0,0,0,26,12.21l-1,1A5.09,5.09,0,0,0,22.38,13l2.18-2.18a4.07,4.07,0,0,1,5.76,5.76Z"/></g></g></svg>